<svg width="40" height="40" viewBox="0 0 24 24" fill="none" xmlns="http://www.w3.org/2000/svg" role="img" aria-label="Frost's Studio">
  <!-- The app's snowflake, split down the middle into two paints: the mark says Frost,
       and the two colours say what this one is for. Strokes rather than a filled flake,
       which closes up into a blob at favicon size. -->
  <g stroke-width="1.5" stroke-linecap="round" stroke-linejoin="round">
    <g stroke="#9ccfec">
      <path d="M 12.00 12.00 L 12.00 1.40 M 12.00 7.76 L 9.14 4.35 M 12.00 7.76 L 14.86 4.35 M 12.00 4.37 L 9.82 1.77 M 12.00 4.37 L 14.18 1.77"/>
      <path d="M 12.00 12.00 L 2.82 6.70 M 8.33 9.88 L 3.94 10.65 M 8.33 9.88 L 6.81 5.70 M 5.39 8.18 L 2.05 8.77 M 5.39 8.18 L 4.23 5.00"/>
      <path d="M 12.00 12.00 L 2.82 17.30 M 8.33 14.12 L 6.81 18.30 M 8.33 14.12 L 3.94 13.35 M 5.39 15.82 L 4.23 19.00 M 5.39 15.82 L 2.05 15.23"/>
    </g>
    <g stroke="#e8bd6a">
      <path d="M 12.00 12.00 L 12.00 22.60 M 12.00 16.24 L 14.86 19.65 M 12.00 16.24 L 9.14 19.65 M 12.00 19.63 L 14.18 22.23 M 12.00 19.63 L 9.82 22.23"/>
      <path d="M 12.00 12.00 L 21.18 17.30 M 15.67 14.12 L 20.06 13.35 M 15.67 14.12 L 17.19 18.30 M 18.61 15.82 L 21.95 15.23 M 18.61 15.82 L 19.77 19.00"/>
      <path d="M 12.00 12.00 L 21.18 6.70 M 15.67 9.88 L 17.19 5.70 M 15.67 9.88 L 20.06 10.65 M 18.61 8.18 L 19.77 5.00 M 18.61 8.18 L 21.95 8.77"/>
    </g>
  </g>
</svg>
